#!OML:ASF X:\für Bonn\!DataBase\2005_08_10_Bjorn_Final\c3d\bjorn.ASF
:FULLY-SPECIFIED
:DEGREES
184
root -13.5396 18.2649 11.2902 175.847 58.0468 -532.913
lowerback 4.15872 -2.65276 0.874306
upperback 17.9276 -1.7654 0.720127
thorax 17.8836 0.0127701 0.409183
lowerneck 9.05364 1.04789 7.01798
upperneck -5.68262 1.95561 -4.06655
head -3.38451 0.980358 -2.73942
rclavicle 2.72335e-014 -1.98785e-014
rhumerus -19.8246 -13.8548 -86.212
rradius 79.9278
rwrist 1.50843
rhand -25.4496 18.2677
rfingers 7.12502
rthumb 1.07738 -11.7094
lclavicle 2.72335e-014 -1.98785e-014
lhumerus -4.92224 -7.93104 88.2797
lradius 66.5129
lwrist -19.7809
lhand -48.909 -17.6976
lfingers 7.12502
lthumb -21.5417 11.1244
rfemur -44.7234 -19.1431 15.2622
rtibia 61.9491
rfoot 15.6424 15.8392
rtoes -27.1986
lfemur 5.17238 15.2695 -11.8403
ltibia 40.4869
lfoot -23.9213 10.1545
ltoes 6.13551
185
root -13.4754 18.2467 11.2446 175.66 58.1595 -533.206
lowerback 4.01115 -2.63816 0.970139
upperback 17.9022 -1.76555 0.720417
thorax 17.9424 0.0234613 0.353242
lowerneck 9.19233 1.03901 7.13497
upperneck -5.7471 1.95225 -4.25642
head -3.43414 0.983824 -2.83202
rclavicle 1.07344e-014 1.04362e-014
rhumerus -19.7642 -13.91 -86.1206
rradius 80.0432
rwrist 1.52781
rhand -25.4713 18.3391
rfingers 7.12502
rthumb 1.05638 -11.638
lclavicle 1.07344e-014 1.04362e-014
lhumerus -4.87035 -8.04029 88.3413
lradius 66.3904
lwrist -19.7571
lhand -48.901 -17.8957
lfingers 7.12502
lthumb -21.534 10.9272
rfemur -44.1477 -19.0614 15.1373
rtibia 60.1051
rfoot 16.1043 15.2317
rtoes -27.183
lfemur 5.4863 15.3671 -11.9503
ltibia 40.3838
lfoot -23.9768 10.1684
ltoes 6.2478
186
root -13.4088 18.2271 11.198 175.398 58.26 -533.578
lowerback 3.85242 -2.62778 1.04427
upperback 17.8796 -1.76848 0.703928
thorax 18.0132 0.0316788 0.28961
lowerneck 9.31705 1.02856 7.24371
upperneck -5.78803 1.94504 -4.44772
head -3.47325 0.985992 -2.92291
rclavicle -8.44835e-016 1.37161e-014
rhumerus -19.7679 -13.9882 -86.0393
rradius 80.1863
rwrist 1.58227
rhand -25.4936 18.4903
rfingers 7.12502
rthumb 1.0348 -11.4869
lclavicle -8.44835e-016 1.37161e-014
lhumerus -4.8749 -8.10757 88.4188
lradius 66.3122
lwrist -19.7985
lhand -48.8921 -18.0971
lfingers 7.12502
lthumb -21.5254 10.7268
rfemur -43.5352 -18.9648 14.9296
rtibia 58.2909
rfoot 16.6185 14.6322
rtoes -26.8745
lfemur 5.81956 15.451 -12.1002
ltibia 40.2682
lfoot -24.0652 10.1578
ltoes 6.42959
187
root -13.3417 18.2086 11.1525 175.128 58.3336 -533.979
lowerback 3.68398 -2.63003 1.08906
upperback 17.8643 -1.78623 0.688214
thorax 18.1022 0.0289634 0.241405
lowerneck 9.38026 1.02831 7.33298
upperneck -6.11348 1.92051 -4.87318
head -3.22498 1.00549 -2.77344
rclavicle 1.18277e-014 1.6201e-014
rhumerus -19.7626 -14.0164 -85.9564
rradius 80.3561
rwrist 1.55412
rhand -25.5362 18.5761
rfingers 7.12502
rthumb 0.993702 -11.4013
lclavicle 1.18277e-014 1.6201e-014
lhumerus -4.8739 -8.20299 88.4553
lradius 66.2813
lwrist -19.7639
lhand -48.9355 -18.2192
lfingers 7.12502
lthumb -21.5671 10.5999
rfemur -42.9268 -18.8435 14.6774
rtibia 56.5161
rfoot 17.2061 13.9642
rtoes -26.1885
lfemur 6.13303 15.4878 -12.2806
ltibia 40.1411
lfoot -24.1369 10.1777
ltoes 6.65957
188
root -13.273 18.1909 11.1075 174.917 58.4108 -534.318
lowerback 3.51227 -2.61952 1.18347
upperback 17.8479 -1.78949 0.672529
thorax 18.19 0.040942 0.167512
lowerneck 9.46746 1.01154 7.46265
upperneck -6.16354 1.90422 -5.06869
head -3.25204 1.00379 -2.85525
rclavicle 3.1731e-014 -4.22417e-014
rhumerus -19.7652 -14.1142 -85.8993
rradius 80.526
rwrist 1.53544
rhand -25.5452 18.7026
rfingers 7.12502
rthumb 0.984976 -11.2749
lclavicle 3.1731e-014 -4.22417e-014
lhumerus -4.89628 -8.33891 88.4792
lradius 66.2802
lwrist -19.7051
lhand -48.9448 -18.3885
lfingers 7.12502
lthumb -21.576 10.4296
rfemur -42.3074 -18.6861 14.4354
rtibia 54.7779
rfoot 17.7588 13.2967
rtoes -25.5541
lfemur 6.44956 15.5444 -12.4096
ltibia 40.0063
lfoot -24.2185 10.1377
ltoes 6.98677
189
root -13.2034 18.1736 11.0633 174.739 58.472 -534.62
lowerback 3.35998 -2.61511 1.31295
upperback 17.8173 -1.80488 0.651276
thorax 18.2431 0.0521334 0.0661702
lowerneck 9.63606 0.987187 7.59633
upperneck -6.26026 1.88388 -5.25868
head -3.30682 1.00027 -2.9374
rclavicle -1.0871e-014 -7.0817e-015
rhumerus -19.7971 -14.2108 -85.8353
rradius 80.6453
rwrist 1.55046
rhand -25.6295 18.8522
rfingers 7.12502
rthumb 0.903555 -11.1256
lclavicle -1.0871e-014 -7.0817e-015
lhumerus -4.95536 -8.46776 88.4992
lradius 66.2589
lwrist -19.6888
lhand -48.9901 -18.4103
lfingers 7.12502
lthumb -21.6195 10.4027
rfemur -41.6881 -18.5076 14.203
rtibia 53.0996
rfoot 18.2495 12.6468
rtoes -25.0733
lfemur 6.76996 15.5941 -12.5116
ltibia 39.865
lfoot -24.2694 10.1304
ltoes 7.08588
190
root -13.1321 18.1551 11.0197 174.581 58.5499 -534.896
lowerback 3.20261 -2.60267 1.43962
upperback 17.8043 -1.80781 0.646505
thorax 18.3256 0.0687311 -0.0125567
lowerneck 9.76518 0.955281 7.75648
upperneck -6.35712 1.85156 -5.48072
head -3.35554 0.991484 -3.03278
rclavicle 1.12531e-014 -2.75752e-014
rhumerus -19.7599 -14.2947 -85.7575
rradius 80.7205
rwrist 1.51952
rhand -25.7561 18.9957
rfingers 7.12502
rthumb 0.781342 -10.9826
lclavicle 1.12531e-014 -2.75752e-014
lhumerus -4.98947 -8.588 88.5275
lradius 66.2702
lwrist -19.6168
lhand -49.0056 -18.551
lfingers 7.12502
lthumb -21.6344 10.2603
rfemur -41.071 -18.2813 13.9764
rtibia 51.4843
rfoot 18.703 12.0402
rtoes -24.7122
lfemur 7.0987 15.6442 -12.5878
ltibia 39.7297
lfoot -24.3677 10.0809
ltoes 7.44518
191
root -13.0594 18.1369 10.9764 174.375 58.6073 -535.24
lowerback 3.05221 -2.59113 1.54843
upperback 17.7806 -1.80978 0.617078
thorax 18.3884 0.0849788 -0.110097
lowerneck 9.90809 0.933014 7.89414
upperneck -6.45659 1.83532 -5.64173
head -3.40716 0.98857 -3.10685
rclavicle 1.82758e-014 -1.13307e-014
rhumerus -19.7349 -14.4071 -85.7058
rradius 80.7675
rwrist 1.54105
rhand -25.9134 19.1471
rfingers 7.12502
rthumb 0.62941 -10.8317
lclavicle 1.82758e-014 -1.13307e-014
lhumerus -5.07381 -8.71895 88.5414
lradius 66.3078
lwrist -19.5737
lhand -49.064 -18.6335
lfingers 7.12502
lthumb -21.6904 10.1714
rfemur -40.4728 -18.0587 13.7062
rtibia 49.9571
rfoot 19.0419 11.5829
rtoes -24.7646
lfemur 7.41188 15.6728 -12.7094
ltibia 39.5991
lfoot -24.4539 10.0193
ltoes 7.79236
192
root -12.9861 18.1175 10.9345 174.258 58.6484 -535.519
lowerback 2.87736 -2.59583 1.66948
upperback 17.765 -1.83755 0.606293
thorax 18.4792 0.0895296 -0.196279
lowerneck 10.0006 0.923342 8.0205
upperneck -6.54204 1.83069 -5.80718
head -3.44561 0.991569 -3.18042
rclavicle 1.74682e-014 -3.24019e-014
rhumerus -19.6492 -14.4986 -85.6656
rradius 80.764
rwrist 1.60878
rhand -26.0822 19.313
rfingers 7.12502
rthumb 0.466315 -10.6662
lclavicle 1.74682e-014 -3.24019e-014
lhumerus -5.0957 -8.78457 88.5632
lradius 66.3187
lwrist -19.5373
lhand -49.074 -18.6216
lfingers 7.12502
lthumb -21.7001 10.1821
rfemur -39.9326 -17.8425 13.4914
rtibia 48.5161
rfoot 19.3544 11.3612
rtoes -25.3497
lfemur 7.67243 15.6952 -12.7952
ltibia 39.49
lfoot -24.5336 9.93933
ltoes 8.12439
193
root -12.9111 18.0976 10.8934 174.132 58.6785 -535.835
lowerback 2.70842 -2.59204 1.79185
upperback 17.7131 -1.86053 0.591214
thorax 18.5153 0.0935089 -0.289053
lowerneck 10.1859 0.903133 8.09669
upperneck -6.64175 1.81508 -5.93417
head -3.50519 0.989592 -3.23476
rclavicle -2.5345e-015 -1.87852e-014
rhumerus -19.6515 -14.5855 -85.5797
rradius 80.7844
rwrist 1.61115
rhand -26.2109 19.458
rfingers 7.12502
rthumb 0.342058 -10.5215
lclavicle -2.5345e-015 -1.87852e-014
lhumerus -5.20257 -8.83487 88.6182
lradius 66.3168
lwrist -19.5101
lhand -49.1037 -18.6957
lfingers 7.12502
lthumb -21.7286 10.1048
rfemur -39.4275 -17.6338 13.2558
rtibia 47.17
rfoot 19.6357 11.3179
rtoes -26.2381
lfemur 7.90634 15.6864 -12.9124
ltibia 39.3973
lfoot -24.644 9.86996
ltoes 8.54528
194
root -12.8346 18.077 10.854 173.982 58.7017 -536.187
lowerback 2.52223 -2.59296 1.90431
upperback 17.6846 -1.88488 0.569315
thorax 18.5962 0.0986169 -0.383892
lowerneck 10.3195 0.894126 8.12456
upperneck -6.75523 1.80569 -6.03546
head -3.5608 0.990032 -3.27327
rclavicle 2.47984e-014 -3.90612e-014
rhumerus -19.5904 -14.6727 -85.4958
rradius 80.7494
rwrist 1.63261
rhand -26.3572 19.588
rfingers 7.12502
rthumb 0.200728 -10.3917
lclavicle 2.47984e-014 -3.90612e-014
lhumerus -5.2543 -8.89269 88.6613
lradius 66.3573
lwrist -19.4656
lhand -49.1001 -18.6489
lfingers 7.12502
lthumb -21.7251 10.152
rfemur -38.9564 -17.4083 12.9931
rtibia 45.9109
rfoot 19.8879 11.4027
rtoes -27.1971
lfemur 8.11419 15.6868 -13.0446
ltibia 39.3306
lfoot -24.759 9.80993
ltoes 8.81319
195
root -12.757 18.0555 10.8151 173.906 58.7239 -536.475
lowerback 2.33384 -2.59882 2.07985
upperback 17.6438 -1.92224 0.533289
thorax 18.6579 0.10788 -0.532162
lowerneck 10.483 0.883592 8.12991
upperneck -6.88743 1.79797 -6.07762
head -3.6277 0.989149 -3.29053
rclavicle 3.19546e-014 -5.4964e-014
rhumerus -19.555 -14.7554 -85.4349
rradius 80.6918
rwrist 1.62063
rhand -26.5085 19.7202
rfingers 7.12502
rthumb 0.0545817 -10.2595
lclavicle 3.19546e-014 -5.4964e-014
lhumerus -5.28385 -8.91171 88.6896
lradius 66.3156
lwrist -19.4318
lhand -49.1233 -18.747
lfingers 7.12502
lthumb -21.7474 10.0514
rfemur -38.5152 -17.1518 12.744
rtibia 44.7387
rfoot 20.1356 11.5738
rtoes -28.0469
lfemur 8.29425 15.6589 -13.146
ltibia 39.282
lfoot -24.8555 9.76096
ltoes 9.11983
196
root -12.6778 18.0325 10.7782 173.817 58.731 -536.799
lowerback 2.15948 -2.60277 2.21876
upperback 17.597 -1.95551 0.503596
thorax 18.7038 0.112158 -0.652583
lowerneck 10.6131 0.868399 8.13338
upperneck -6.99702 1.78096 -6.12736
head -3.68296 0.983966 -3.30866
rclavicle 2.8625e-014 -3.3197e-014
rhumerus -19.5321 -14.8273 -85.3761
rradius 80.6434
rwrist 1.60042
rhand -26.6618 19.8355
rfingers 7.12502
rthumb -0.0934598 -10.1443
lclavicle 2.8625e-014 -3.3197e-014
lhumerus -5.3235 -8.92768 88.7371
lradius 66.2897
lwrist -19.4487
lhand -49.1367 -18.639
lfingers 7.12502
lthumb -21.7602 10.1578
rfemur -38.1048 -16.8715 12.4626
rtibia 43.6459
rfoot 20.36 11.754
rtoes -28.8108
lfemur 8.44713 15.6151 -13.2728
ltibia 39.253
lfoot -24.9682 9.68641
ltoes 9.40826
197
root -12.599 18.0096 10.7417 173.733 58.7294 -537.117
lowerback 2.01405 -2.61832 2.37317
upperback 17.5476 -2.00584 0.480123
thorax 18.7252 0.109911 -0.776284
lowerneck 10.7714 0.862896 8.01348
upperneck -7.13295 1.76882 -6.08228
head -3.75253 0.979717 -3.27824
rclavicle 2.71341e-014 -3.43897e-014
rhumerus -19.4989 -14.8778 -85.3126
rradius 80.5594
rwrist 1.62456
rhand -26.805 19.8981
rfingers 7.12502
rthumb -0.231797 -10.0815
lclavicle 2.71341e-014 -3.43897e-014
lhumerus -5.34608 -8.89793 88.8067
lradius 66.2383
lwrist -19.4678
lhand -49.142 -18.5654
lfingers 7.12502
lthumb -21.7654 10.2309
rfemur -37.7001 -16.5579 12.1524
rtibia 42.6366
rfoot 20.6084 11.9094
rtoes -29.4297
lfemur 8.58906 15.5505 -13.4042
ltibia 39.2348
lfoot -25.0661 9.67604
ltoes 9.5064
198
root -12.5175 17.9887 10.7065 173.691 58.7154 -537.408
lowerback 1.85194 -2.62752 2.55541
upperback 17.5032 -2.04756 0.440259
thorax 18.7637 0.118755 -0.933371
lowerneck 10.9321 0.846492 8.00165
upperneck -7.29403 1.75219 -6.09376
head -3.82901 0.973148 -3.28308
rclavicle 4.27387e-014 -1.59028e-015
rhumerus -19.4496 -14.9556 -85.2915
rradius 80.4673
rwrist 1.57069
rhand -26.9353 19.9422
rfingers 7.12502
rthumb -0.357565 -10.0373
lclavicle 4.27387e-014 -1.59028e-015
lhumerus -5.30924 -8.89029 88.8325
lradius 66.1307
lwrist -19.5412
lhand -49.1893 -18.3837
lfingers 7.12502
lthumb -21.8108 10.4072
rfemur -37.3109 -16.2045 11.8429
rtibia 41.7083
rfoot 20.7605 11.9486
rtoes -29.9219
lfemur 8.70558 15.4711 -13.52
ltibia 39.2146
lfoot -25.1509 9.63907
ltoes 9.90084
